<svg xmlns="http://www.w3.org/2000/svg" width="158" height="36">
    <defs>
        <linearGradient id="a" x1="0%" x2="0%" y1="0%" y2="100%">
            <stop offset="0%" stop-color="#13D8A7"/>
            <stop offset="100%" stop-color="#23A695"/>
        </linearGradient>
    </defs>
    <path fill="#FFF" fill-rule="evenodd" d="M144.855 20.361a2.88 2.88 0 0 1-1.064 1.225c-.457.289-.985.434-1.582.434-.551 0-1.027-.119-1.428-.357a2.244 2.244 0 0 1-.91-1.043v3.458c0 .13-.037.235-.112.315a.404.404 0 0 1-.308.119.426.426 0 0 1-.315-.119.43.43 0 0 1-.119-.315v-8.652c0-.131.04-.236.119-.315a.426.426 0 0 1 .315-.119c.131 0 .233.04.308.119a.438.438 0 0 1 .112.315v.938c.205-.457.509-.805.91-1.043.401-.238.877-.357 1.428-.357.597 0 1.125.147 1.582.441a2.91 2.91 0 0 1 1.064 1.246c.252.537.378 1.16.378 1.869 0 .7-.126 1.314-.378 1.841zm-1.099-3.913c-.397-.495-.95-.742-1.659-.742-.709 0-1.258.243-1.645.728s-.581 1.171-.581 2.058c0 .887.191 1.57.574 2.051.383.481.929.721 1.638.721.719 0 1.276-.24 1.673-.721s.595-1.155.595-2.023c0-.887-.198-1.577-.595-2.072zm-7.987 5.138c-.457.289-.985.434-1.582.434-.551 0-1.027-.119-1.428-.357a2.244 2.244 0 0 1-.91-1.043v3.458c0 .13-.037.235-.112.315a.404.404 0 0 1-.308.119.426.426 0 0 1-.315-.119.43.43 0 0 1-.119-.315v-8.652c0-.131.04-.236.119-.315a.426.426 0 0 1 .315-.119c.131 0 .233.04.308.119a.438.438 0 0 1 .112.315v.938c.205-.457.509-.805.91-1.043.401-.238.877-.357 1.428-.357.597 0 1.125.147 1.582.441a2.91 2.91 0 0 1 1.064 1.246c.252.537.378 1.16.378 1.869 0 .7-.126 1.314-.378 1.841a2.88 2.88 0 0 1-1.064 1.225zm-.035-5.138c-.397-.495-.95-.742-1.659-.742-.709 0-1.258.243-1.645.728s-.581 1.171-.581 2.058c0 .887.191 1.57.574 2.051.383.481.929.721 1.638.721.719 0 1.276-.24 1.673-.721s.595-1.155.595-2.023c0-.887-.198-1.577-.595-2.072zm-6.727 5.544a.385.385 0 0 1-.217-.07.454.454 0 0 1-.161-.196l-1.064-2.436h-5.432l-1.078 2.436c-.084.177-.214.266-.392.266a.42.42 0 0 1-.287-.105.348.348 0 0 1-.119-.273c0-.065.01-.117.028-.154l4.088-9.184a.46.46 0 0 1 .462-.308c.103 0 .199.028.287.084a.462.462 0 0 1 .189.224l4.074 9.184a.373.373 0 0 1 .042.168.324.324 0 0 1-.126.259.445.445 0 0 1-.294.105zm-4.158-8.876l-2.394 5.418h4.774l-2.38-5.418zm-9.715 5.516h-4.662c.028.859.252 1.512.672 1.96.42.448 1.012.672 1.778.672.401 0 .737-.054 1.008-.161.27-.107.56-.25.868-.427.205-.14.35-.21.434-.21.084 0 .156.035.217.105.06.07.091.152.091.245 0 .205-.159.406-.476.602a4.09 4.09 0 0 1-2.128.602c-1.036 0-1.853-.313-2.45-.938-.598-.625-.896-1.484-.896-2.576 0-.7.133-1.318.399-1.855a2.962 2.962 0 0 1 1.12-1.246c.48-.294 1.033-.441 1.659-.441.877 0 1.57.282 2.079.847.508.565.763 1.342.763 2.331 0 .168-.038.292-.112.371-.075.079-.196.119-.364.119zm-.868-2.359c-.355-.406-.854-.609-1.498-.609-.654 0-1.176.205-1.568.616-.392.411-.626.985-.7 1.722h4.326c-.019-.747-.206-1.323-.56-1.729zm-8.12 4.991c.354 0 .651-.051.889-.154a5.75 5.75 0 0 0 .777-.42c.084-.056.165-.107.245-.154a.405.405 0 0 1 .189-.07c.093 0 .168.033.224.098a.353.353 0 0 1 .084.238c0 .112-.033.21-.098.294a1.897 1.897 0 0 1-.378.322 2.93 2.93 0 0 1-.917.441c-.36.107-.717.161-1.071.161-.626 0-1.176-.145-1.652-.434a2.894 2.894 0 0 1-1.106-1.232c-.262-.532-.392-1.143-.392-1.834 0-.7.133-1.318.399-1.855a3.011 3.011 0 0 1 1.12-1.253c.48-.299 1.033-.448 1.659-.448.354 0 .7.047 1.036.14.336.093.634.233.896.42.168.121.287.231.357.329s.105.203.105.315a.372.372 0 0 1-.084.252.266.266 0 0 1-.21.098c-.094 0-.243-.079-.448-.238a3.71 3.71 0 0 0-.728-.42 2.257 2.257 0 0 0-.882-.154c-.728 0-1.298.25-1.708.749-.411.499-.616 1.188-.616 2.065 0 .868.203 1.542.609 2.023.406.481.973.721 1.701.721zm-5.418.728a.426.426 0 0 1-.315-.119.426.426 0 0 1-.119-.315v-3.906c0-.672-.135-1.162-.406-1.47-.271-.308-.7-.462-1.288-.462-.672 0-1.211.205-1.617.616-.406.411-.609.961-.609 1.652v3.57a.438.438 0 0 1-.112.315.404.404 0 0 1-.308.119.426.426 0 0 1-.315-.119.426.426 0 0 1-.119-.315v-6.132c0-.131.04-.236.119-.315a.426.426 0 0 1 .315-.119c.121 0 .219.037.294.112a.415.415 0 0 1 .112.308v.882c.215-.429.525-.758.931-.987.406-.229.875-.343 1.407-.343 1.633 0 2.45.877 2.45 2.632v3.962a.443.443 0 0 1-.112.315.404.404 0 0 1-.308.119zm-7.854-.014a.404.404 0 0 1-.308-.119.438.438 0 0 1-.112-.315v-.84c-.196.42-.481.744-.854.973a2.413 2.413 0 0 1-1.288.343c-.439 0-.84-.089-1.204-.266a2.123 2.123 0 0 1-.861-.742 1.861 1.861 0 0 1-.315-1.05c0-.504.131-.896.392-1.176.261-.28.695-.481 1.302-.602.607-.121 1.451-.182 2.534-.182h.294v-.518c0-.616-.126-1.066-.378-1.351-.252-.285-.649-.427-1.19-.427-.691 0-1.349.182-1.974.546l-.217.147c-.117.079-.217.119-.301.119a.293.293 0 0 1-.231-.105.38.38 0 0 1-.091-.259c0-.205.163-.406.49-.602a4.385 4.385 0 0 1 1.092-.434 4.77 4.77 0 0 1 1.19-.154c.821 0 1.435.215 1.841.644.406.429.609 1.078.609 1.946v3.99a.438.438 0 0 1-.112.315.404.404 0 0 1-.308.119zm-.42-3.346h-.266c-.896 0-1.582.037-2.058.112-.476.075-.812.203-1.008.385-.196.182-.294.446-.294.791 0 .392.149.716.448.973.299.257.667.385 1.106.385.607 0 1.104-.205 1.491-.616.387-.411.581-.933.581-1.568v-.462zm-6.944 3.36a.428.428 0 0 1-.315-.119.426.426 0 0 1-.119-.315v-3.906c0-.672-.135-1.162-.406-1.47-.271-.308-.7-.462-1.288-.462-.672 0-1.211.205-1.617.616-.406.411-.609.961-.609 1.652v3.57a.438.438 0 0 1-.112.315.404.404 0 0 1-.308.119.428.428 0 0 1-.315-.119.426.426 0 0 1-.119-.315v-6.132c0-.131.04-.236.119-.315a.428.428 0 0 1 .315-.119c.121 0 .219.037.294.112a.415.415 0 0 1 .112.308v.882c.215-.429.525-.758.931-.987.406-.229.875-.343 1.407-.343 1.633 0 2.45.877 2.45 2.632v3.962a.438.438 0 0 1-.112.315.404.404 0 0 1-.308.119zm-7.14-6.216c-.662.065-1.155.303-1.477.714a2.269 2.269 0 0 0-.483 1.442v3.626c0 .14-.037.247-.112.322a.417.417 0 0 1-.308.112.446.446 0 0 1-.315-.112c-.079-.075-.119-.182-.119-.322v-6.132c0-.14.04-.247.119-.322a.442.442 0 0 1 .315-.112c.122 0 .22.037.294.112a.415.415 0 0 1 .112.308v.91c.383-.803 1.092-1.241 2.128-1.316l.196-.014c.178-.009.304.014.378.07.075.056.112.149.112.28 0 .233-.14.364-.42.392l-.42.042zm-5.067 2.856h-4.662c.028.859.252 1.512.672 1.96.42.448 1.012.672 1.778.672.401 0 .737-.054 1.008-.161.27-.107.56-.25.868-.427.205-.14.35-.21.434-.21.084 0 .156.035.217.105.06.07.091.152.091.245 0 .205-.159.406-.476.602a4.09 4.09 0 0 1-2.128.602c-1.036 0-1.853-.313-2.45-.938-.598-.625-.896-1.484-.896-2.576 0-.7.133-1.318.399-1.855a2.962 2.962 0 0 1 1.12-1.246c.48-.294 1.033-.441 1.659-.441.877 0 1.57.282 2.079.847.508.565.763 1.342.763 2.331 0 .168-.038.292-.112.371-.075.079-.196.119-.364.119zm-.868-2.359c-.355-.406-.854-.609-1.498-.609-.654 0-1.176.205-1.568.616-.392.411-.626.985-.7 1.722h4.326c-.019-.747-.206-1.323-.56-1.729zm-8.358 5.369a.54.54 0 0 1-.791.238.528.528 0 0 1-.203-.238l-2.786-6.09a.358.358 0 0 1 .105-.455.494.494 0 0 1 .315-.119c.177 0 .298.084.364.252l2.52 5.656 2.52-5.642c.074-.168.196-.252.364-.252.102 0 .196.037.28.112a.345.345 0 0 1 .126.266.402.402 0 0 1-.042.182l-2.772 6.09zm-6.16-.056c-.476.289-1.022.434-1.638.434-.626 0-1.174-.145-1.645-.434a2.905 2.905 0 0 1-1.099-1.232c-.262-.532-.392-1.153-.392-1.862 0-.709.13-1.33.392-1.862a2.905 2.905 0 0 1 1.099-1.232c.471-.289 1.019-.434 1.645-.434.616 0 1.162.145 1.638.434.476.289.842.7 1.099 1.232.256.532.385 1.153.385 1.862 0 .709-.129 1.33-.385 1.862a2.854 2.854 0 0 1-1.099 1.232zm.007-5.145c-.397-.49-.945-.735-1.645-.735-.71 0-1.26.245-1.652.735-.392.49-.588 1.174-.588 2.051 0 .896.191 1.582.574 2.058.382.476.933.714 1.652.714.718 0 1.274-.238 1.666-.714.392-.476.588-1.162.588-2.058 0-.877-.199-1.561-.595-2.051zM49.58 21.88a9.016 9.016 0 0 1-1.659.154c-.962 0-1.79-.198-2.485-.595-.696-.397-1.228-.975-1.596-1.736-.369-.761-.553-1.668-.553-2.723 0-1.036.182-1.932.546-2.688.364-.756.886-1.337 1.568-1.743.681-.406 1.488-.609 2.422-.609.653 0 1.264.105 1.834.315.569.21 1.036.511 1.4.903a.564.564 0 0 1 .182.406.43.43 0 0 1-.084.266.253.253 0 0 1-.21.112c-.075 0-.178-.047-.308-.14-.495-.411-.952-.695-1.372-.854-.42-.159-.901-.238-1.442-.238-1.158 0-2.051.371-2.681 1.113-.63.742-.945 1.794-.945 3.157 0 1.391.317 2.455.952 3.192.634.737 1.558 1.106 2.772 1.106.466 0 .926-.04 1.379-.119a5.637 5.637 0 0 0 1.211-.343v-3.22h-2.268c-.131 0-.231-.033-.301-.098a.346.346 0 0 1-.105-.266c0-.112.035-.201.105-.266.07-.065.17-.098.301-.098h2.674a.37.37 0 0 1 .273.105.37.37 0 0 1 .105.273v3.71c0 .243-.108.411-.322.504a5.978 5.978 0 0 1-1.393.42zM12.384 34.325c-3.265-2.012-9.583-5.904-10.511-6.478C.002 26.566.002 24.523.002 24.523V11.47s0-2.224 1.888-3.339l10.494-6.468C16-.564 16-.564 19.622 1.667l10.479 6.458c1.897 1.178 1.896 3.341 1.896 3.341v13.058s.001 2.141-1.896 3.339l-10.483 6.46C16 36.555 16 36.555 12.384 34.325z"/>
    <path fill="url(#a)" d="M12.384 34.325c-3.265-2.012-9.583-5.904-10.511-6.478C.002 26.566.002 24.523.002 24.523V11.47s0-2.224 1.888-3.339l10.494-6.468C16-.564 16-.564 19.622 1.667l10.479 6.458c1.897 1.178 1.896 3.341 1.896 3.341v13.058s.001 2.141-1.896 3.339l-10.483 6.46C16 36.555 16 36.555 12.384 34.325z"/>
    <path fill="#FFF" fill-rule="evenodd" d="M23.01 12.007l-5.107 6.504 5.104 6.499h-3.806L16 20.934l-3.201 4.076H8.994l5.103-6.499-5.107-6.504h3.805L16 16.088l3.205-4.081h3.805z"/>
    <path fill="#16D1A5" fill-rule="evenodd" d="M157 5a1 1 0 0 1 1 1v24a1 1 0 0 1-2 0V6a1 1 0 0 1 1-1z"/>
</svg>
