<svg
    height="26"
    width="172"
    xmlns="http://www.w3.org/2000/svg"
>
    <defs>
        <style type="text/css">
            @import url('https://fonts.googleapis.com/css?family=Nunito:400');
            text {
                font-family: "Nunito", sans-serif;
            }
        </style>
    </defs>
    <path
        fill="#FFF"
        fill-rule="evenodd"
        d="M36.528 20H24.272c-.167 0-.334-.028-.499-.068l.018.068h-5.287l-1.607-5.969H.969A.96.96 0 0 1 0 13.078l.003-.015H0V5.906C0 4.853.86 4 1.922 4l.016.002V4h30.275c1.061 0 2.153.855 2.437 1.91l3.285 12.18c.285 1.055-.345 1.91-1.407 1.91zM7.723 6.866H3.361l1.169 4.298h4.362L7.723 6.866zm7.209 0h-4.361l1.169 4.298h4.361l-1.169-4.298zm11.743 10.985h1.923l-.517-1.911h-1.922l.516 1.911zm5.201-10.985h-8.17l2.194 8.119h8.171l-2.195-8.119zm2.453 9.074h-1.922l.516 1.911h1.923l-.517-1.911zm-33.61.047v-.05h12.969v.003h1.557L16.342 20H1.938v-.002L1.922 20A1.914 1.914 0 0 1 0 18.094v-1.188h.005c0-.006-.005-.01-.005-.015 0-.439.308-.793.719-.904z"
    />
    <text
        fill="#FFF"
        font-family="Nunito"
        font-size="14"
        font-weight="300"
        x="47"
        y="17"
    >Governance&#32;App</text>
    <path
        fill="#FFF"
        fill-rule="evenodd"
        d="M170 0a1 1 0 0 1 1 1v24a1 1 0 0 1-2 0V1a1 1 0 0 1 1-1z"
    />
</svg>
