<svg xmlns="http://www.w3.org/2000/svg" width="148" height="26">
    <path fill="#FFF" fill-rule="evenodd" d="M147 0a1 1 0 0 1 1 1v24a1 1 0 0 1-2 0V1a1 1 0 0 1 1-1zM17.188 23.263l2.062 2.053V26H2.75v-.684l2.062-2.053C2.2 23.263 0 21.074 0 18.474v-13C0 .684 4.95 0 11 0s11 .684 11 5.474v13c0 2.6-2.2 4.789-4.812 4.789zM5 20a2 2 0 1 0 .001-3.999A2 2 0 0 0 5 20zm5-15H3v7h7V5zm9 0h-7v7h7V5zm-2 11a2 2 0 1 0-.001 3.999A2 2 0 0 0 17 16zM135.061 15.413a2.9 2.9 0 0 1-1.057 1.225c-.453.289-.983.434-1.589.434-.532 0-.997-.117-1.393-.35a2.246 2.246 0 0 1-.903-.994v3.29a.54.54 0 0 1-.147.399c-.098.098-.236.147-.413.147a.564.564 0 0 1-.42-.154.53.53 0 0 1-.154-.392v-8.442c0-.168.051-.303.154-.406a.564.564 0 0 1 .42-.154c.177 0 .315.051.413.154a.564.564 0 0 1 .147.406v.756c.205-.429.506-.761.903-.994.396-.233.861-.35 1.393-.35.597 0 1.124.149 1.582.448a2.96 2.96 0 0 1 1.064 1.253c.252.537.378 1.16.378 1.869 0 .709-.126 1.328-.378 1.855zm-1.33-3.78c-.364-.462-.878-.693-1.54-.693-.663 0-1.174.224-1.533.672-.36.448-.539 1.087-.539 1.918s.179 1.472.539 1.925c.359.453.87.679 1.533.679.662 0 1.176-.224 1.54-.672.364-.448.546-1.083.546-1.904s-.182-1.463-.546-1.925zm-7.875 5.005c-.453.289-.982.434-1.589.434-.532 0-.996-.117-1.393-.35a2.246 2.246 0 0 1-.903-.994v3.29a.54.54 0 0 1-.147.399c-.098.098-.236.147-.413.147a.567.567 0 0 1-.42-.154.53.53 0 0 1-.154-.392v-8.442c0-.168.051-.303.154-.406a.567.567 0 0 1 .42-.154c.177 0 .315.051.413.154a.564.564 0 0 1 .147.406v.756c.205-.429.506-.761.903-.994.397-.233.861-.35 1.393-.35.597 0 1.125.149 1.582.448a2.96 2.96 0 0 1 1.064 1.253c.252.537.378 1.16.378 1.869 0 .709-.126 1.328-.378 1.855a2.893 2.893 0 0 1-1.057 1.225zm-.273-5.005c-.364-.462-.877-.693-1.54-.693s-1.174.224-1.533.672c-.359.448-.539 1.087-.539 1.918s.18 1.472.539 1.925c.359.453.87.679 1.533.679.663 0 1.176-.224 1.54-.672.364-.448.546-1.083.546-1.904s-.182-1.463-.546-1.925zm-6.748 5.411c-.233 0-.397-.112-.49-.336l-.994-2.268h-5.278l-1.008 2.268c-.093.224-.257.336-.49.336a.577.577 0 0 1-.392-.147.457.457 0 0 1-.168-.357c0-.075.019-.149.056-.224l4.004-8.904a.6.6 0 0 1 .252-.294.712.712 0 0 1 .364-.098c.14 0 .266.035.378.105.112.07.196.166.252.287l4.004 8.904a.53.53 0 0 1 .056.238c0 .14-.054.257-.161.35a.569.569 0 0 1-.385.14zm-4.13-8.582l-2.212 5.026h4.438l-2.226-5.026zm-9.8 5.278h-4.508c.084 1.605.845 2.408 2.282 2.408.364 0 .677-.049.938-.147.261-.098.541-.231.84-.399.243-.14.406-.21.49-.21.103 0 .191.042.266.126a.464.464 0 0 1 .112.322c0 .233-.163.448-.49.644a4.243 4.243 0 0 1-1.064.441 4.288 4.288 0 0 1-1.092.147c-1.055 0-1.888-.313-2.499-.938-.611-.625-.917-1.489-.917-2.59 0-.7.135-1.318.406-1.855a3.031 3.031 0 0 1 1.141-1.253c.49-.299 1.048-.448 1.673-.448.887 0 1.591.289 2.114.868.523.579.784 1.363.784 2.352 0 .187-.037.322-.112.406-.075.084-.196.126-.364.126zm-1.036-2.317c-.327-.369-.784-.553-1.372-.553-.597 0-1.076.187-1.435.56-.359.373-.572.901-.637 1.582h3.962c-.019-.691-.191-1.22-.518-1.589zm-7.98 4.711c.318 0 .591-.047.819-.14.229-.093.46-.219.693-.378a3.58 3.58 0 0 1 .294-.168.554.554 0 0 1 .238-.07c.103 0 .189.042.259.126.07.084.105.191.105.322a.576.576 0 0 1-.098.329c-.065.098-.186.208-.364.329-.261.177-.576.32-.945.427a3.969 3.969 0 0 1-1.113.161c-.634 0-1.197-.145-1.687-.434-.49-.289-.868-.7-1.134-1.232-.266-.532-.399-1.148-.399-1.848 0-.7.138-1.321.413-1.862a3.064 3.064 0 0 1 1.155-1.26c.495-.299 1.064-.448 1.708-.448.355 0 .707.049 1.057.147.35.098.656.24.917.427.168.112.287.222.357.329.07.107.105.226.105.357a.485.485 0 0 1-.105.322.339.339 0 0 1-.273.126.479.479 0 0 1-.21-.056 1.43 1.43 0 0 1-.189-.112 4.38 4.38 0 0 0-.798-.448 2.059 2.059 0 0 0-.805-.14c-.681 0-1.211.231-1.589.693-.378.462-.567 1.104-.567 1.925s.189 1.456.567 1.904c.378.448.908.672 1.589.672zm-5.557.91a.581.581 0 0 1-.42-.147c-.103-.098-.154-.236-.154-.413V12.76c0-.635-.124-1.097-.371-1.386-.248-.289-.642-.434-1.183-.434-.626 0-1.125.191-1.498.574-.374.383-.56.901-.56 1.554v3.416c0 .177-.049.315-.147.413-.098.098-.236.147-.413.147a.581.581 0 0 1-.42-.147c-.103-.098-.154-.236-.154-.413v-5.908c0-.168.051-.303.154-.406a.564.564 0 0 1 .42-.154c.168 0 .301.051.399.154a.545.545 0 0 1 .147.392v.714c.224-.42.536-.74.938-.959a2.815 2.815 0 0 1 1.372-.329c1.633 0 2.45.901 2.45 2.702v3.794c0 .177-.049.315-.147.413-.098.098-.236.147-.413.147zm-7.938 0a.547.547 0 0 1-.406-.154.548.548 0 0 1-.154-.406v-.672a2.007 2.007 0 0 1-.812.931 2.396 2.396 0 0 1-1.26.329c-.439 0-.843-.089-1.211-.266a2.157 2.157 0 0 1-.875-.742 1.83 1.83 0 0 1-.322-1.05c0-.513.13-.912.392-1.197.261-.285.69-.49 1.288-.616.597-.126 1.428-.189 2.492-.189h.308v-.462c0-.56-.115-.971-.343-1.232-.229-.261-.6-.392-1.113-.392-.635 0-1.279.173-1.932.518-.252.159-.43.238-.532.238a.358.358 0 0 1-.28-.126.464.464 0 0 1-.112-.322c0-.131.039-.245.119-.343.079-.098.207-.198.385-.301a4.458 4.458 0 0 1 1.113-.441 4.947 4.947 0 0 1 1.239-.161c1.708 0 2.562.896 2.562 2.688v3.808a.564.564 0 0 1-.147.406.524.524 0 0 1-.399.154zm-.56-3.304h-.252c-.822 0-1.447.035-1.876.105-.43.07-.735.187-.917.35-.182.163-.273.404-.273.721 0 .364.133.665.399.903s.599.357 1.001.357c.56 0 1.019-.189 1.379-.567.359-.378.539-.866.539-1.463v-.406zm-6.874 3.304a.581.581 0 0 1-.42-.147c-.103-.098-.154-.236-.154-.413V12.76c0-.635-.124-1.097-.371-1.386-.248-.289-.642-.434-1.183-.434-.626 0-1.125.191-1.498.574-.374.383-.56.901-.56 1.554v3.416c0 .177-.049.315-.147.413-.098.098-.236.147-.413.147a.581.581 0 0 1-.42-.147c-.103-.098-.154-.236-.154-.413v-5.908c0-.168.051-.303.154-.406a.564.564 0 0 1 .42-.154c.168 0 .301.051.399.154a.545.545 0 0 1 .147.392v.714c.224-.42.536-.74.938-.959a2.815 2.815 0 0 1 1.372-.329c1.633 0 2.45.901 2.45 2.702v3.794c0 .177-.049.315-.147.413-.098.098-.236.147-.413.147zM68.1 11.01l-.42.042c-.626.056-1.09.278-1.393.665a2.144 2.144 0 0 0-.455 1.365v3.402c0 .187-.052.327-.154.42a.582.582 0 0 1-.406.14.588.588 0 0 1-.413-.147c-.108-.098-.161-.236-.161-.413v-5.908a.52.52 0 0 1 .168-.413.595.595 0 0 1 .406-.147c.149 0 .275.049.378.147a.528.528 0 0 1 .154.399v.784c.196-.411.473-.723.833-.938a2.808 2.808 0 0 1 1.239-.378l.196-.014c.392-.028.588.131.588.476a.499.499 0 0 1-.126.357c-.084.089-.229.142-.434.161zm-5.544 2.73h-4.508c.084 1.605.844 2.408 2.282 2.408.364 0 .676-.049.938-.147.261-.098.541-.231.84-.399.242-.14.406-.21.49-.21.102 0 .191.042.266.126a.47.47 0 0 1 .112.322c0 .233-.164.448-.49.644a4.243 4.243 0 0 1-1.064.441 4.3 4.3 0 0 1-1.092.147c-1.055 0-1.888-.313-2.499-.938-.612-.625-.917-1.489-.917-2.59 0-.7.135-1.318.406-1.855.27-.537.651-.954 1.141-1.253.49-.299 1.047-.448 1.673-.448.886 0 1.591.289 2.114.868.522.579.784 1.363.784 2.352 0 .187-.038.322-.112.406-.075.084-.196.126-.364.126zm-1.036-2.317c-.327-.369-.784-.553-1.372-.553-.598 0-1.076.187-1.435.56-.36.373-.572.901-.637 1.582h3.962c-.019-.691-.192-1.22-.518-1.589zm-8.148 5.201a.676.676 0 0 1-.616.392.65.65 0 0 1-.35-.105.751.751 0 0 1-.266-.287l-2.716-5.88a.408.408 0 0 1-.056-.21c0-.14.063-.261.189-.364a.637.637 0 0 1 .413-.154.54.54 0 0 1 .476.322l2.338 5.25 2.338-5.222c.102-.224.266-.336.49-.336.14 0 .266.047.378.14.112.093.168.21.168.35a.446.446 0 0 1-.056.224l-2.73 5.88zm-6.314.014c-.495.289-1.064.434-1.708.434-.644 0-1.211-.145-1.701-.434a2.888 2.888 0 0 1-1.134-1.239c-.266-.537-.399-1.16-.399-1.869 0-.709.133-1.332.399-1.869.266-.537.644-.95 1.134-1.239.49-.289 1.057-.434 1.701-.434.644 0 1.213.145 1.708.434.495.289.875.702 1.141 1.239.266.537.399 1.16.399 1.869 0 .709-.133 1.332-.399 1.869-.266.537-.646.95-1.141 1.239zm-.168-5.033c-.364-.453-.877-.679-1.54-.679s-1.176.226-1.54.679c-.364.453-.546 1.094-.546 1.925 0 .84.18 1.484.539 1.932.359.448.875.672 1.547.672.672 0 1.188-.222 1.547-.665.359-.443.539-1.09.539-1.939 0-.831-.182-1.472-.546-1.925zm-7.014 4.963a6.223 6.223 0 0 1-1.358.378 9.253 9.253 0 0 1-1.596.14c-.98 0-1.825-.201-2.534-.602a3.996 3.996 0 0 1-1.631-1.736c-.378-.756-.567-1.661-.567-2.716 0-1.036.187-1.932.56-2.688a4.018 4.018 0 0 1 1.61-1.743c.7-.406 1.521-.609 2.464-.609.653 0 1.26.1 1.82.301.56.201 1.031.488 1.414.861.159.159.238.322.238.49a.547.547 0 0 1-.112.343.34.34 0 0 1-.28.147c-.112 0-.243-.056-.392-.168-.485-.373-.924-.632-1.316-.777-.392-.145-.845-.217-1.358-.217-1.111 0-1.962.35-2.555 1.05-.593.7-.889 1.703-.889 3.01 0 1.335.301 2.35.903 3.045.602.695 1.486 1.043 2.653 1.043.868 0 1.657-.131 2.366-.392v-2.996h-2.044a.543.543 0 0 1-.378-.126.414.414 0 0 1-.14-.322c0-.14.047-.25.14-.329a.565.565 0 0 1 .378-.119h2.618c.14 0 .254.042.343.126a.458.458 0 0 1 .133.35v3.486c0 .224-.035.392-.105.504-.07.112-.198.201-.385.266z"/>
</svg>
