<svg xmlns="http://www.w3.org/2000/svg" width="18" height="18">
    <path fill="#333" fill-rule="evenodd" d="M17 18h-6a1 1 0 0 1-1-1v-6a1 1 0 0 1 1-1h6a1 1 0 0 1 1 1v6a1 1 0 0 1-1 1zm-1-6h-4v4h4v-4zm1-4h-6a1 1 0 0 1-1-1V1a1 1 0 0 1 1-1h6a1 1 0 0 1 1 1v6a1 1 0 0 1-1 1zm-1-6h-4v4h4V2zM7 18H1a1 1 0 0 1-1-1v-6a1 1 0 0 1 1-1h6a1 1 0 0 1 1 1v6a1 1 0 0 1-1 1zm-1-6H2v4h4v-4zm.728-8.514l-.118.118-.127.128h-.001l-.881.882-.78.779c-.023.03-.034.066-.062.093l-.805.805a.86.86 0 0 1-.222.441c-.2.2-.471.269-.732.237a.869.869 0 0 1-.732-.237.86.86 0 0 1-.222-.441l-.56-.559-.127-.128-.118-.118-1-1a.88.88 0 1 1 1.245-1.245l1.246 1.245.268.268.175-.175c.023-.03.034-.065.062-.093l1.246-1.245.754-.755 1.246-1.245a.88.88 0 1 1 1.245 1.245l-1 1z"/>
</svg>
