<svg xmlns="http://www.w3.org/2000/svg" width="127" height="150">
    <path fill="#FFF" fill-rule="evenodd" d="M99.219 134.21l11.906 11.842V150h-95.25v-3.948l11.906-11.842C12.7 134.21 0 121.579 0 106.579v-75C0 3.948 28.575 0 63.5 0S127 3.948 127 31.579v75c0 15-12.7 27.631-27.781 27.631zM28.5 115c6.351 0 11.5-5.149 11.5-11.5S34.851 92 28.5 92 17 97.149 17 103.5 22.149 115 28.5 115zM57 29H17v40h40V29zm52 0H69v40h40V29zM97.5 92C91.149 92 86 97.149 86 103.5S91.149 115 97.5 115s11.5-5.149 11.5-11.5S103.851 92 97.5 92z"/>
</svg>
