<svg
    xmlns="http://www.w3.org/2000/svg"
    xmlns:xlink="http://www.w3.org/1999/xlink"
    width="144px"
    height="18px"
>
    <defs>
        <style type="text/css">
            @import url('https://fonts.googleapis.com/css?family=Nunito:300,400,700');
            text {
                font-family: "Nunito", sans-serif;
            }
        </style>
    </defs>
    <path
        fill-rule="evenodd"
        fill="rgb(255, 255, 255)"
        d="M30.506,5.000 L28.857,5.000 L28.013,8.000 L29.752,8.000 L28.997,11.000 L15.753,11.000 L14.735,15.000 L10.305,15.000 L9.993,15.000 L1.166,15.000 C0.325,15.000 -0.174,14.328 0.052,13.500 L2.504,4.500 C2.730,3.672 3.595,3.000 4.436,3.000 L13.012,3.000 L13.575,3.000 L31.009,3.000 L30.506,5.000 ZM8.573,14.000 L8.989,12.000 L7.437,12.000 L7.020,14.000 L8.573,14.000 ZM2.421,12.000 L1.996,14.000 L3.581,14.000 L4.006,12.000 L2.421,12.000 ZM4.700,5.000 L3.012,11.000 L9.302,11.000 L10.989,5.000 L4.700,5.000 ZM17.851,5.000 L17.007,8.000 L20.152,8.000 L20.996,5.000 L17.851,5.000 ZM23.845,5.000 L22.994,8.000 L26.164,8.000 L27.015,5.000 L23.845,5.000 ZM28.995,12.000 L28.177,15.000 L15.992,15.000 L16.809,12.000 L28.995,12.000 Z"
    />
    <text
        fill="rgb(255, 255, 255)"
        transform="matrix( 0.60869565217391, 0, 0, 0.6,41.2910869565218, 12.4000000000001)"
        font-size="18.333px"
    >Sokol&#32;Test&#32;Network</text>
    <path
        fill-rule="evenodd"
        fill="rgb(255, 255, 255)"
        d="M143.500,-0.000 C143.776,-0.000 144.000,0.224 144.000,0.500 L144.000,17.500 C144.000,17.776 143.776,18.000 143.500,18.000 C143.224,18.000 143.000,17.776 143.000,17.500 L143.000,0.500 C143.000,0.224 143.224,-0.000 143.500,-0.000 Z"
    />
</svg>