<svg
    xmlns="http://www.w3.org/2000/svg"
    xmlns:xlink="http://www.w3.org/1999/xlink"
    width="178px"
    height="26px"
>
    <defs>
        <style type="text/css">
            @import url('https://fonts.googleapis.com/css?family=Nunito:300,400,700');
            text {
                font-family: "Nunito", sans-serif;
            }
        </style>
    </defs>
    <path
        fill-rule="evenodd"
        fill="rgb(255, 255, 255)"
        d="M8.938,17.812 L8.125,17.812 L8.125,20.188 L8.122,20.188 C8.122,20.193 8.125,20.198 8.125,20.203 C8.125,20.643 7.761,21.000 7.313,21.000 L0.813,21.000 C0.364,21.000 0.000,20.643 0.000,20.203 C0.000,20.198 0.003,20.193 0.003,20.188 L0.000,20.188 L0.000,5.812 L0.003,5.812 C0.003,5.807 0.000,5.802 0.000,5.797 C0.000,5.357 0.364,5.000 0.813,5.000 L8.938,5.000 C12.527,5.000 15.437,7.868 15.437,11.406 C15.437,14.944 12.527,17.812 8.938,17.812 Z"
    />
    <path
        fill-rule="evenodd"
        fill="rgb(255, 255, 255)"
        d="M25.188,5.000 C29.675,5.000 33.313,8.582 33.313,13.000 C33.313,17.418 29.675,21.000 25.188,21.000 C20.700,21.000 17.062,17.418 17.062,13.000 C17.062,8.582 20.700,5.000 25.188,5.000 Z"
    />
    <path
        fill-rule="evenodd"
        fill="rgb(255, 255, 255)"
        d="M52.000,20.493 C52.000,20.766 51.775,20.987 51.497,20.987 L33.064,20.987 C33.042,20.990 33.023,21.000 33.000,21.000 C32.724,21.000 32.500,20.776 32.500,20.500 C32.500,20.391 32.542,20.296 32.601,20.214 L32.592,20.197 L41.743,5.388 L41.763,5.388 C41.811,5.164 42.004,4.993 42.246,4.993 C42.488,4.993 42.680,5.164 42.728,5.388 L42.749,5.388 L52.000,20.296 L51.968,20.339 C51.985,20.389 52.000,20.439 52.000,20.493 Z"
    />
    <text
        font-family="Nunito"
        fill="rgb(255, 255, 255)"
        font-size="14px"
        x="63px"
        y="17px"
    >Governance&#32;App</text>
    <path
        fill-rule="evenodd"
        fill="rgb(96, 219, 151)"
        d="M177.000,0.000 C177.552,0.000 178.000,0.448 178.000,1.000 L178.000,25.000 C178.000,25.552 177.552,26.000 177.000,26.000 C176.448,26.000 176.000,25.552 176.000,25.000 L176.000,1.000 C176.000,0.448 176.448,0.000 177.000,0.000 Z"
    />
</svg>